<!-- public/benefits-illustration.svg -->
<svg xmlns="http://www.w3.org/2000/svg" viewBox="0 0 400 400" fill="none">
  <rect width="400" height="400" fill="none"/>
  <path d="M200,350 C300,350 350,300 350,200 C350,100 300,50 200,50 C100,50 50,100 50,200 C50,300 100,350 200,350" fill="#edf2f7" opacity="0.3"/>
  
  <!-- Left display with doctor -->
  <rect x="80" y="120" width="100" height="160" rx="10" fill="#4299e1"/>
  <rect x="90" y="130" width="80" height="120" rx="5" fill="#ebf8ff"/>
  <circle cx="130" cy="160" r="20" fill="#2c5282"/>
  <rect x="110" y="190" width="40" height="50" fill="#2c5282"/>
  
  <!-- Right display with patient -->
  <rect x="220" y="120" width="100" height="160" rx="10" fill="#4299e1"/>
  <rect x="230" y="130" width="80" height="120" rx="5" fill="#ebf8ff"/>
  <circle cx="270" cy="160" r="20" fill="#68d391"/>
  <rect x="250" y="190" width="40" height="50" fill="#68d391"/>
  
  <!-- Check mark -->
  <circle cx="200" cy="200" r="30" fill="#48bb78"/>
  <path d="M185,200 L195,210 L215,190" stroke="#ffffff" stroke-width="5" stroke-linecap="round" stroke-linejoin="round"/>
  
  <!-- Connection lines -->
  <path d="M160,180 L180,180" stroke="#2c5282" stroke-width="3" stroke-dasharray="5,5"/>
  <path d="M220,180 L240,180" stroke="#2c5282" stroke-width="3" stroke-dasharray="5,5"/>
</svg>